<svg height="40" viewBox="0 0 40 40" width="40" xmlns="http://www.w3.org/2000/svg"><path d="m31.533 29.763h-22.065c-2.453 0-3.668-1.223-3.668-3.647v-11.3c0-2.423 1.215-3.635 3.668-3.635h22.065c2.43 0 3.668 1.223 3.668 3.635v11.3c-.001 2.423-1.238 3.647-3.668 3.647zm1.787-14.846a1.649 1.649 0 0 0 -1.82-1.847h-22.009a1.636 1.636 0 0 0 -1.811 1.847v11.093a1.644 1.644 0 0 0 1.811 1.859h22.009a1.658 1.658 0 0 0 1.82-1.859zm-2.92 10.383h-1.063a.487.487 0 0 1 -.526-.529v-1.078a.483.483 0 0 1 .526-.518h1.063a.483.483 0 0 1 .526.518v1.082a.487.487 0 0 1 -.526.525zm0-3.788h-1.063a.487.487 0 0 1 -.526-.529v-1.066a.487.487 0 0 1 .526-.529h1.063a.487.487 0 0 1 .526.529v1.071a.487.487 0 0 1 -.526.528zm0-3.788h-1.063a.483.483 0 0 1 -.526-.518v-1.077a.487.487 0 0 1 .526-.529h1.063a.487.487 0 0 1 .526.529v1.082a.483.483 0 0 1 -.526.518zm-3.866 7.576h-12.114a.586.586 0 0 1 -.643-.647v-.843a.583.583 0 0 1 .643-.635h12.114a.58.58 0 0 1 .631.635v.847a.583.583 0 0 1 -.631.643zm.117-3.788h-1.075a.487.487 0 0 1 -.526-.529v-1.066a.487.487 0 0 1 .526-.529h1.075a.484.484 0 0 1 .514.529v1.071a.483.483 0 0 1 -.514.528zm0-3.788h-1.075a.483.483 0 0 1 -.526-.518v-1.077a.487.487 0 0 1 .526-.529h1.075a.483.483 0 0 1 .514.529v1.082a.48.48 0 0 1 -.514.518zm-3.761 3.788h-1.075a.484.484 0 0 1 -.514-.529v-1.066a.484.484 0 0 1 .514-.529h1.075a.487.487 0 0 1 .526.529v1.071a.487.487 0 0 1 -.527.528zm0-3.788h-1.075a.48.48 0 0 1 -.514-.518v-1.077a.484.484 0 0 1 .514-.529h1.075a.487.487 0 0 1 .526.529v1.082a.483.483 0 0 1 -.527.518zm-3.761 3.788h-1.064a.487.487 0 0 1 -.526-.529v-1.066a.487.487 0 0 1 .526-.529h1.063a.487.487 0 0 1 .526.529v1.071a.487.487 0 0 1 -.526.528zm0-3.788h-1.064a.483.483 0 0 1 -.526-.518v-1.077a.487.487 0 0 1 .526-.529h1.063a.487.487 0 0 1 .526.529v1.082a.483.483 0 0 1 -.526.518zm-3.75 3.788h-1.079a.487.487 0 0 1 -.526-.529v-1.066a.487.487 0 0 1 .526-.529h1.075a.484.484 0 0 1 .514.529v1.071a.483.483 0 0 1 -.511.528zm0-3.788h-1.079a.483.483 0 0 1 -.526-.518v-1.077a.487.487 0 0 1 .526-.529h1.075a.483.483 0 0 1 .514.529v1.082a.48.48 0 0 1 -.511.518zm-3.762 7.576h-1.075a.484.484 0 0 1 -.514-.529v-1.078a.48.48 0 0 1 .514-.518h1.075a.483.483 0 0 1 .526.518v1.082a.487.487 0 0 1 -.526.525zm0-3.788h-1.075a.484.484 0 0 1 -.514-.529v-1.066a.484.484 0 0 1 .514-.529h1.075a.487.487 0 0 1 .526.529v1.071a.487.487 0 0 1 -.526.528zm0-3.788h-1.075a.48.48 0 0 1 -.514-.518v-1.077a.484.484 0 0 1 .514-.529h1.075a.487.487 0 0 1 .526.529v1.082a.483.483 0 0 1 -.526.518z" fill="#fff" fill-rule="evenodd"/></svg>