<svg height="40" viewBox="0 0 40 40" width="40" xmlns="http://www.w3.org/2000/svg"><path d="m32.326 32.436h-24.651c-2.818 0-4.234-1.4-4.234-4.16v-14.052q0-4.147 4.234-4.147h3.762a2.176 2.176 0 0 0 2-.886l1.079-1.208a3.248 3.248 0 0 1 2.751-1.141h5.381a3.248 3.248 0 0 1 2.751 1.141l1.079 1.208a2.134 2.134 0 0 0 2 .886h3.857c2.8 0 4.234 1.382 4.234 4.147v14.051c-.009 2.765-1.439 4.161-4.243 4.161zm2.063-18.091a1.892 1.892 0 0 0 -2.1-2.107h-4.36a2.934 2.934 0 0 1 -2.549-.98l-1.052-1.181a2.525 2.525 0 0 0 -2.359-1.077h-4.032a2.525 2.525 0 0 0 -2.36 1.074l-1.052 1.181a2.934 2.934 0 0 1 -2.549.98h-4.276a1.888 1.888 0 0 0 -2.09 2.107v13.826a1.888 1.888 0 0 0 2.09 2.107h24.585a1.892 1.892 0 0 0 2.1-2.107v-13.823zm-4.789 3.395a1.694 1.694 0 0 1 -1.7-1.678 1.686 1.686 0 0 1 3.371 0 1.688 1.688 0 0 1 -1.671 1.678zm-9.6 10.603a7.334 7.334 0 1 1 7.35-7.343 7.315 7.315 0 0 1 -7.35 7.343zm0-12.643a5.3 5.3 0 1 0 5.313 5.3 5.308 5.308 0 0 0 -5.313-5.3z" fill="#fff" fill-rule="evenodd"/></svg>