<svg height="40" viewBox="0 0 40 40" width="40" xmlns="http://www.w3.org/2000/svg"><path d="m32.94 30.625a4.7 4.7 0 0 1 -3.688-1.8l-2.119-2.561a1.326 1.326 0 0 0 -1.007-.538h-11.251a1.327 1.327 0 0 0 -1.007.538l-2.119 2.561a4.7 4.7 0 0 1 -3.688 1.8 4.223 4.223 0 0 1 -4.461-4.513 14.3 14.3 0 0 1 .726-4.023 63.977 63.977 0 0 1 3.161-8.189c1.007-2.1 1.522-3.064 4-3.625a41.885 41.885 0 0 1 9.015-.842 41.765 41.765 0 0 1 9 .842c2.482.561 3 1.52 4 3.625a63.945 63.945 0 0 1 3.161 8.186 14.3 14.3 0 0 1 .726 4.023 4.223 4.223 0 0 1 -4.449 4.516zm2.131-7.344a74.241 74.241 0 0 0 -3.325-8.759c-.585-1.251-.89-2.011-2.412-2.362a39.823 39.823 0 0 0 -8.828-.842 39.863 39.863 0 0 0 -8.839.842c-1.522.351-1.838 1.111-2.412 2.362a71.518 71.518 0 0 0 -3.325 8.76 10.541 10.541 0 0 0 -.539 2.9 2.515 2.515 0 0 0 2.646 2.631 3.2 3.2 0 0 0 2.435-1.3l2.2-2.655a2.345 2.345 0 0 1 2.119-1.017h11.417a2.345 2.345 0 0 1 2.119 1.017l2.2 2.655a3.2 3.2 0 0 0 2.435 1.3 2.515 2.515 0 0 0 2.646-2.631 10.107 10.107 0 0 0 -.538-2.9zm-7.294-5.718a1.7 1.7 0 1 1 1.709-1.7 1.708 1.708 0 0 1 -1.709 1.701zm-3.442 3.461a1.7 1.7 0 1 1 1.709-1.7 1.708 1.708 0 0 1 -1.709 1.701zm-6.4-2.362h-1.983v2.046a.926.926 0 1 1 -1.85 0v-2.045h-2.108a.9.9 0 0 1 -.972-.982.886.886 0 0 1 .972-.947h2.106v-2.047a.926.926 0 1 1 1.85 0v2.046h1.98a.919.919 0 0 1 1.042.947.933.933 0 0 1 -1.042.983z" fill="#fff" fill-rule="evenodd"/></svg>