<svg height="40" viewBox="0 0 40 40" width="40" xmlns="http://www.w3.org/2000/svg"><path d="m32.64 32.5h-11.671v-9.86h.117a10.74 10.74 0 0 0 7.282 6.36 1.616 1.616 0 0 0 .208.014 1.211 1.211 0 0 0 1.245-1.228 1.265 1.265 0 0 0 -1.277-1.346c-2.158-.219-5.153-3.028-6.048-4.886h14.753v6.426c0 3.014-1.526 4.52-4.609 4.52zm-7.061-18.856a1.725 1.725 0 0 1 1.835 1.887c0 1.96-2.613 4.052-5.7 4.052h-.47v-.439c.004-2.944 2.015-5.5 4.335-5.5zm4.052 1.711a3.836 3.836 0 0 0 -3.934-3.95 5.416 5.416 0 0 0 -4.727 3.2v-7.1h11.67c3.083 0 4.61 1.521 4.61 4.535v7.768h-10.95a5.036 5.036 0 0 0 3.33-4.453zm-15.312-3.95a3.845 3.845 0 0 0 -3.934 3.95 5.059 5.059 0 0 0 3.332 4.462h-10.966v-7.768c0-3.014 1.541-4.535 4.61-4.535h11.685v7.1a5.382 5.382 0 0 0 -4.727-3.208zm-1.719 4.126a1.732 1.732 0 0 1 1.835-1.887c2.32 0 4.331 2.56 4.331 5.5v.439h-.466c-3.071 0-5.7-2.092-5.7-4.052zm-1.13 10.913a1.27 1.27 0 0 0 -1.263 1.346 1.211 1.211 0 0 0 1.245 1.228 1.615 1.615 0 0 0 .21-.018 10.741 10.741 0 0 0 7.282-6.364h.1v9.864h-11.684q-4.6 0-4.61-4.52v-6.422h14.784c-.91 1.858-3.891 4.642-6.063 4.886z" fill="#fff" fill-rule="evenodd"/></svg>