<svg height="40" viewBox="0 0 40 40" width="40" xmlns="http://www.w3.org/2000/svg"><path d="m33.786 27.584a1.922 1.922 0 0 1 .061 2.137l-2.947 6.014a1.648 1.648 0 0 1 -1.466.824 1.283 1.283 0 0 1 -1.359-1.145l3.359-6.823a21.9 21.9 0 0 0 1.97-8.96c0-7.617-5.222-12.761-12.9-12.761-7.7 0-12.9 5.144-12.9 12.761a21.9 21.9 0 0 0 1.97 8.961l3.344 6.823a1.26 1.26 0 0 1 -1.344 1.145 1.614 1.614 0 0 1 -1.466-.824l-2.969-6.015a1.918 1.918 0 0 1 .076-2.137 18.308 18.308 0 0 1 -1.924-7.968c0-8.548 5.894-15.341 15.209-15.341s15.21 6.792 15.21 15.34a18.308 18.308 0 0 1 -1.924 7.969zm-23.028-3.465a1.782 1.782 0 0 1 .667-.13 1.907 1.907 0 0 1 1.716 1.183l4.077 8.243a1.781 1.781 0 0 1 -.718 2.534 1.947 1.947 0 0 1 -.872.217 2.1 2.1 0 0 1 -1.828-1.331l-3.9-7.923a1.9 1.9 0 0 1 .858-2.793zm17.088 1.053a1.926 1.926 0 0 1 1.724-1.183 1.829 1.829 0 0 1 .673.13 1.907 1.907 0 0 1 .855 2.793l-3.898 7.923a2.107 2.107 0 0 1 -1.843 1.331 1.953 1.953 0 0 1 -.875-.217 1.789 1.789 0 0 1 -.7-2.534z" fill="#fff" fill-rule="evenodd"/></svg>